<svg id="WellRight-Logo-Green" xmlns="http://www.w3.org/2000/svg" width="150.001" height="88.546" viewBox="0 0 150.001 88.546">
  <g id="Group_13977" data-name="Group 13977" transform="translate(0 0)">
    <path id="Path_1" data-name="Path 1" d="M43.285,45.719Q56.215,6.906,99.253,0C98,34.512,79.97,50.275,45.431,48,50.266,39.16,59.4,29.49,72.735,19.047Q50.3,33.031,43.285,45.719" transform="translate(19.443 0)" fill="#7cbf3d"/>
    <path id="Path_2" data-name="Path 2" d="M51.555,40.771q-5.5-23.229-30.148-29.484C20.341,31.41,30,41.51,50.189,41.987,47.839,36.6,43.033,30.5,35.827,23.738q12.312,9.293,15.728,17.032" transform="translate(9.58 5.07)" fill="#7cbf3d"/>
    <path id="Path_3" data-name="Path 3" d="M0,42.22H5.243L9.85,57.283l4.99-15.127h4.194l4.99,15.127L28.63,42.22h5.117l-7.6,22.4H21.894L16.873,50.068l-5.02,14.553H7.6Z" transform="translate(0 18.936)" fill="#7cbf3d"/>
    <path id="Path_4" data-name="Path 4" d="M22.346,54.505v-.064c0-4.861,3.465-8.865,8.421-8.865,5.688,0,8.294,4.417,8.294,9.246,0,.383-.032.826-.064,1.272H27.144a3.951,3.951,0,0,0,4.164,3.336,5.582,5.582,0,0,0,4.13-1.748L38.2,60.13a8.516,8.516,0,0,1-6.959,3.178,8.52,8.52,0,0,1-8.9-8.8m12.012-1.429c-.287-2.161-1.558-3.623-3.591-3.623-2,0-3.3,1.429-3.685,3.623Z" transform="translate(10.038 20.472)" fill="#7cbf3d"/>
    <rect id="Rectangle_1" data-name="Rectangle 1" width="4.83" height="23.197" transform="translate(52.152 60.201)" fill="#7cbf3d"/>
    <rect id="Rectangle_2" data-name="Rectangle 2" width="4.83" height="23.197" transform="translate(60.986 60.201)" fill="#7cbf3d"/>
    <path id="Path_5" data-name="Path 5" d="M48.377,42.2H58.545a8.859,8.859,0,0,1,6.482,2.256,6.981,6.981,0,0,1,1.907,5.082V49.6a6.909,6.909,0,0,1-4.766,6.9L67.6,64.444h-5.72l-4.766-7.12H53.271v7.12H48.377ZM58.227,53c2.384,0,3.749-1.271,3.749-3.146v-.064c0-2.1-1.461-3.177-3.845-3.177H53.271V53Z" transform="translate(21.731 18.955)" fill="#7cbf3d"/>
    <path id="Path_6" data-name="Path 6" d="M63.42,41.541H68.5v4.29H63.42Zm.128,6.165h4.83V64.738h-4.83Z" transform="translate(28.488 18.659)" fill="#7cbf3d"/>
    <path id="Path_7" data-name="Path 7" d="M69.782,66.295l1.652-3.623a11.127,11.127,0,0,0,5.753,1.558c3.3,0,4.861-1.59,4.861-4.64v-.826a6.662,6.662,0,0,1-5.561,2.764c-3.972,0-7.563-2.891-7.563-7.943V53.52c0-5.085,3.655-7.943,7.563-7.943a6.888,6.888,0,0,1,5.5,2.542V45.893h4.83V59.081c0,3.051-.73,5.275-2.161,6.705-1.588,1.588-4.036,2.287-7.34,2.287a16.167,16.167,0,0,1-7.531-1.778M82.048,53.584V53.52a4.152,4.152,0,0,0-8.294,0v.064a3.891,3.891,0,0,0,4.13,3.94,3.936,3.936,0,0,0,4.164-3.94" transform="translate(30.96 20.472)" fill="#7cbf3d"/>
    <path id="Path_8" data-name="Path 8" d="M83.727,41.542h4.83v8.581a6.024,6.024,0,0,1,4.988-2.733c3.655,0,5.784,2.414,5.784,6.323V64.739H94.5v-9.5c0-2.288-1.081-3.464-2.923-3.464s-3.019,1.175-3.019,3.464v9.5h-4.83Z" transform="translate(37.609 18.66)" fill="#7cbf3d"/>
    <path id="Path_9" data-name="Path 9" d="M98.041,59.347V51.276H96.008V47.144h2.033V42.791h4.83v4.353h4v4.132h-4v7.276c0,1.113.477,1.652,1.556,1.652a4.935,4.935,0,0,0,2.384-.6v3.877a7.117,7.117,0,0,1-3.813.984c-2.956,0-4.958-1.175-4.958-5.116" transform="translate(43.126 19.221)" fill="#7cbf3d"/>
  </g>
</svg>
